<svg width="694" height="746" xmlns="http://www.w3.org/2000/svg" overflow="hidden"><defs><clipPath id="a"><path d="M197 526h694v746H197z"/></clipPath></defs><g clip-path="url(#a)" transform="translate(-197 -526)"><path d="M553.204 930.792l23.027 8.667-50.868 159.161-23.026-8.67 50.867-159.158zm-70.883 41.586l-37.446 40.992 36.703 40.91-17.48 18.47-45.041-50.22c-4.632-5.18-4.596-13.43.085-18.56l45.87-50.221 17.309 18.629zm181.127 31.592c4.681 5.13 4.717 13.38.085 18.56l-45.065 50.22L601 1054.28l36.703-40.91-37.434-40.992 17.309-18.629 45.87 50.221zm87.473 53.84l-42.03 22.8c-4.12 2.25-6.729 6.83-6.729 11.84v78.83l-98.956 66.11-47.32-29.34v-68.4h-24.38v68.4l-47.32 29.34-98.956-66.11v-78.84c0-5.02-2.608-9.59-6.741-11.83l-42.018-22.81-.012-51.52.012-57.824 43.957-36.36c3.023-2.501 4.802-6.39 4.802-10.519v-73.513l90.618-57.371 55.658 33.726v83.835h24.38v-83.835l55.646-33.726 90.63 57.371v73.513c0 4.129 1.767 8.018 4.791 10.519l43.968 36.347.012 57.837-.012 51.53zm19.576-126.435l-43.956-36.361v-74.545c0-4.697-2.303-9.05-6.045-11.431L617.81 744.032c-3.73-2.369-8.338-2.408-12.08-.133l-62.034 37.604-62.033-37.604c-3.767-2.262-8.362-2.236-12.08.133l-102.686 65.006c-3.754 2.381-6.046 6.734-6.046 11.431v74.559l-43.968 36.347c-3.023 2.5-4.791 6.403-4.791 10.531l-.012 64.374.012 59.7c0 5.01 2.609 9.59 6.729 11.84l42.03 22.8v78.06c0 4.59 2.182 8.85 5.79 11.26l110.926 74.11c3.791 2.51 8.545 2.61 12.434.21l53.695-33.29 53.684 33.29a11.394 11.394 0 0 0 6.046 1.75c2.218 0 4.425-.66 6.4-1.96l110.913-74.11c3.608-2.41 5.802-6.67 5.802-11.26v-78.05l42.019-22.81c4.132-2.24 6.74-6.82 6.74-11.83l.013-59.71-.013-64.387c0-4.128-1.779-8.018-4.803-10.518zM421.799 603.78c0 10.956-8.191 19.847-18.284 19.847-10.105 0-18.285-8.891-18.285-19.847 0-10.969 8.18-19.847 18.285-19.847 10.093 0 18.284 8.878 18.284 19.847zm-60.948 0c0 10.956-8.192 19.847-18.284 19.847-10.106 0-18.285-8.891-18.285-19.847 0-10.969 8.179-19.847 18.285-19.847 10.092 0 18.284 8.878 18.284 19.847zm-60.949 0c0 10.956-8.191 19.847-18.284 19.847-10.105 0-18.285-8.891-18.285-19.847 0-10.969 8.18-19.847 18.285-19.847 10.093 0 18.284 8.878 18.284 19.847zm-73.137 46.31l.06-91.389c0-.583.634-1.231 1.536-1.231h630.731c.902 0 1.536.648 1.536 1.231v91.389H226.765zm632.327-119.082H228.3c-14.262 0-25.891 12.411-25.915 27.666l-.378 487.086c-.012 15.19 11.544 27.63 25.842 27.73l47.674-.02v-26.44l-47.247.01c-.89 0-1.511-.65-1.511-1.23l.279-369.258h633.584v369.118c0 .72-.707 1.35-1.536 1.35l-47.223.01v26.46l47.223-.01c14.287 0 25.916-12.48 25.916-27.81V558.701c0-15.269-11.629-27.693-25.916-27.693z" stroke="#008296" stroke-width="10.313" stroke-miterlimit="8" fill="#FFF" fill-rule="evenodd"/></g></svg>