<svg id="Layer_1" xmlns="http://www.w3.org/2000/svg" viewBox="0 0 200 200"><defs><style>.cls-1,.cls-2{fill:none;stroke:#232f3e;stroke-linejoin:round;stroke-width:4px}.cls-2{fill-rule:evenodd}</style></defs><path class="cls-1" d="M91.83 103.38L73.4 92.74V61.36l24.76-14.29 1.42-.82 1-.58 27.18 15.69-27.18 15.69-18.12-10.46"/><path class="cls-1" d="M100.58 77.05v31.39l3.86-2.23 23.32-13.47V70.11"/><path class="cls-2" d="M145.5 48.55h10.82c4.36 0 7.9 3.54 7.9 7.9v88.51H35.78V56.45c0-4.36 3.54-7.9 7.9-7.9h9.36M22.76 145.53h154.48l-13.02 21.07H35.78l-13.02-21.07z"/><path class="cls-1" d="M144.97 119.16h-31.84l-13.46 12.43-12.5-12.43H55.03V33.4h89.94v85.76z"/></svg>